<svg width="3358" height="1521" xmlns="http://www.w3.org/2000/svg" xmlns:xlink="http://www.w3.org/1999/xlink" xml:space="preserve" overflow="hidden"><g transform="translate(-731 -226)"><path d="M733.333 259.722 1951.51 259.722 1951.51 418.191 733.333 418.191Z" fill="#156082" fill-rule="evenodd"/><path d="M1951.51 259.722 4079.02 259.722 4079.02 418.191 1951.51 418.191Z" fill="#156082" fill-rule="evenodd"/><path d="M733.333 418.191 1951.51 418.191 1951.51 1000.03 733.333 1000.03Z" fill="#CCD2D8" fill-rule="evenodd"/><path d="M1951.51 418.191 4079.02 418.191 4079.02 1000.03 1951.51 1000.03Z" fill="#CCD2D8" fill-rule="evenodd"/><path d="M733.333 1000.03 1951.51 1000.03 1951.51 1336.49 733.333 1336.49Z" fill="#E7EAED" fill-rule="evenodd"/><path d="M1951.51 1000.03 4079.02 1000.03 4079.02 1336.49 1951.51 1336.49Z" fill="#E7EAED" fill-rule="evenodd"/><path d="M733.333 1336.49 1951.51 1336.49 1951.51 1741.97 733.333 1741.97Z" fill="#CCD2D8" fill-rule="evenodd"/><path d="M1951.51 1336.49 4079.02 1336.49 4079.02 1741.97 1951.51 1741.97Z" fill="#CCD2D8" fill-rule="evenodd"/><path d="M1951.51 257.43 1951.51 1744.26" stroke="#FFFFFF" stroke-width="4.58333" stroke-linejoin="round" stroke-miterlimit="10" fill="none" fill-rule="evenodd"/><path d="M731.041 418.191 4081.31 418.191" stroke="#FFFFFF" stroke-width="13.75" stroke-linejoin="round" stroke-miterlimit="10" fill="none" fill-rule="evenodd"/><path d="M731.041 1000.03 4081.31 1000.03" stroke="#FFFFFF" stroke-width="4.58333" stroke-linejoin="round" stroke-miterlimit="10" fill="none" fill-rule="evenodd"/><path d="M731.041 1336.49 4081.31 1336.49" stroke="#FFFFFF" stroke-width="4.58333" stroke-linejoin="round" stroke-miterlimit="10" fill="none" fill-rule="evenodd"/><path d="M733.333 257.43 733.333 1744.26" stroke="#FFFFFF" stroke-width="4.58333" stroke-linejoin="round" stroke-miterlimit="10" fill="none" fill-rule="evenodd"/><path d="M4079.02 257.43 4079.02 1744.26" stroke="#FFFFFF" stroke-width="4.58333" stroke-linejoin="round" stroke-miterlimit="10" fill="none" fill-rule="evenodd"/><path d="M731.041 259.722 4081.31 259.722" stroke="#FFFFFF" stroke-width="4.58333" stroke-linejoin="round" stroke-miterlimit="10" fill="none" fill-rule="evenodd"/><path d="M731.041 1741.97 4081.31 1741.97" stroke="#FFFFFF" stroke-width="4.58333" stroke-linejoin="round" stroke-miterlimit="10" fill="none" fill-rule="evenodd"/><text fill="#FFFFFF" font-family="Adobe Heiti Std R,Adobe Heiti Std R_MSFontService,sans-serif" font-weight="700" font-size="128" transform="matrix(1 0 0 1 2537.74 384)">Threshold</text><text fill="#FFFFFF" font-family="Adobe Heiti Std R,Adobe Heiti Std R_MSFontService,sans-serif" font-weight="700" font-size="128" transform="matrix(1 0 0 1 3184.56 384)">defined</text><text fill="#FFFFFF" font-family="Adobe Heiti Std R,Adobe Heiti Std R_MSFontService,sans-serif" font-weight="700" font-size="128" transform="matrix(1 0 0 1 936.795 384)">Analog</text><g><text fill="#FFFFFF" font-family="Adobe Heiti Std R,Adobe Heiti Std R_MSFontService,sans-serif" font-weight="700" font-size="128" transform="matrix(1 0 0 1 1406.59 384)">Variable</text></g><text font-family="Adobe Heiti Std R,Adobe Heiti Std R_MSFontService,sans-serif" font-weight="400" font-size="83" transform="matrix(1 0 0 1 2141.26 497)">Maximum</text><text font-family="Adobe Heiti Std R,Adobe Heiti Std R_MSFontService,sans-serif" font-weight="400" font-size="83" transform="matrix(1 0 0 1 2537.72 497)">acceptable</text><text font-family="Adobe Heiti Std R,Adobe Heiti Std R_MSFontService,sans-serif" font-weight="400" font-size="83" transform="matrix(1 0 0 1 2964.54 497)">temperature</text><text font-family="Adobe Heiti Std R,Adobe Heiti Std R_MSFontService,sans-serif" font-weight="400" font-size="83" transform="matrix(1 0 0 1 3456.67 497)">=  </text><text font-family="Adobe Heiti Std R,Adobe Heiti Std R_MSFontService,sans-serif" font-weight="400" font-size="83" transform="matrix(1 0 0 1 3548.91 497)">26</text><text font-family="Calibri,Calibri_MSFontService,sans-serif" font-weight="400" font-size="83" transform="matrix(1 0 0 1 3660.06 497)">º</text><text font-family="Adobe Heiti Std R,Adobe Heiti Std R_MSFontService,sans-serif" font-weight="400" font-size="83" transform="matrix(1 0 0 1 3713.34 497)">C</text><text font-family="Adobe Heiti Std R,Adobe Heiti Std R_MSFontService,sans-serif" font-weight="400" font-size="83" transform="matrix(1 0 0 1 3763.76 497)">.</text><text font-family="Adobe Heiti Std R,Adobe Heiti Std R_MSFontService,sans-serif" font-style="oblique" font-weight="400" font-size="83" transform="matrix(1 0 0 1 2141.26 746)">(</text><text font-family="Adobe Heiti Std R,Adobe Heiti Std R_MSFontService,sans-serif" font-style="oblique" font-weight="400" font-size="83" transform="matrix(1 0 0 1 2167.61 746)">35 </text><text font-family="Calibri,Calibri_MSFontService,sans-serif" font-style="italic" font-weight="400" font-size="83" transform="matrix(1 0 0 1 2278.76 746)">º</text><text font-family="Adobe Heiti Std R,Adobe Heiti Std R_MSFontService,sans-serif" font-style="oblique" font-weight="400" font-size="83" transform="matrix(1 0 0 1 2332.04 746)">C </text><text font-family="Adobe Heiti Std R,Adobe Heiti Std R_MSFontService,sans-serif" font-style="oblique" font-weight="400" font-size="83" transform="matrix(1 0 0 1 2400.79 746)">would be a more realistic threshold, but 26 </text><text font-family="Calibri,Calibri_MSFontService,sans-serif" font-style="italic" font-weight="400" font-size="83" transform="matrix(1 0 0 1 2141.26 852)">º</text><text font-family="Adobe Heiti Std R,Adobe Heiti Std R_MSFontService,sans-serif" font-style="oblique" font-weight="400" font-size="83" transform="matrix(1 0 0 1 2176.21 852)">C </text><text font-family="Adobe Heiti Std R,Adobe Heiti Std R_MSFontService,sans-serif" font-style="oblique" font-weight="400" font-size="83" transform="matrix(1 0 0 1 2244.96 852)">was chosen to make the demonstration easier.)</text><text font-family="Adobe Heiti Std R,Adobe Heiti Std R_MSFontService,sans-serif" font-weight="400" font-size="83" transform="matrix(1 0 0 1 923.083 497)">Temperature</text><text font-family="Adobe Heiti Std R,Adobe Heiti Std R_MSFontService,sans-serif" font-weight="400" font-size="83" transform="matrix(1 0 0 1 2141.26 1079)">Photoresistor values mapped from 0</text><text font-family="Adobe Heiti Std R,Adobe Heiti Std R_MSFontService,sans-serif" font-weight="400" font-size="83" transform="matrix(1 0 0 1 3498.5 1079)">–</text><text font-family="Adobe Heiti Std R,Adobe Heiti Std R_MSFontService,sans-serif" font-weight="400" font-size="83" transform="matrix(1 0 0 1 3581 1079)">4095 → 0</text><text font-family="Adobe Heiti Std R,Adobe Heiti Std R_MSFontService,sans-serif" font-weight="400" font-size="83" transform="matrix(1 0 0 1 3932.2 1079)">–</text><text font-family="Adobe Heiti Std R,Adobe Heiti Std R_MSFontService,sans-serif" font-weight="400" font-size="83" transform="matrix(1 0 0 1 2141.26 1185)">100% ;</text><text font-family="Adobe Heiti Std R,Adobe Heiti Std R_MSFontService,sans-serif" font-weight="400" font-size="83" transform="matrix(1 0 0 1 2159.59 1291)">≤30% = Low</text><text font-family="Adobe Heiti Std R,Adobe Heiti Std R_MSFontService,sans-serif" font-weight="400" font-size="83" transform="matrix(1 0 0 1 923.083 1079)">Ambient</text><text font-family="Adobe Heiti Std R,Adobe Heiti Std R_MSFontService,sans-serif" font-weight="400" font-size="83" transform="matrix(1 0 0 1 1267.41 1079)">Light </text><text font-family="Adobe Heiti Std R,Adobe Heiti Std R_MSFontService,sans-serif" font-weight="400" font-size="83" transform="matrix(1 0 0 1 1479.96 1079)">Intensity</text><text font-family="Adobe Heiti Std R,Adobe Heiti Std R_MSFontService,sans-serif" font-weight="400" font-size="83" transform="matrix(1 0 0 1 2141.26 1415)">ADC: 0 = Wet, 4095 = Dry; ≥3000 = Dry, ≤1700 = </text><text font-family="Adobe Heiti Std R,Adobe Heiti Std R_MSFontService,sans-serif" font-weight="400" font-size="83" transform="matrix(1 0 0 1 2141.26 1522)">Excess moisture, 1701</text><text font-family="Adobe Heiti Std R,Adobe Heiti Std R_MSFontService,sans-serif" font-weight="400" font-size="83" transform="matrix(1 0 0 1 2960.53 1522)">–</text><text font-family="Adobe Heiti Std R,Adobe Heiti Std R_MSFontService,sans-serif" font-weight="400" font-size="83" transform="matrix(1 0 0 1 3043.03 1522)">2999 = Good</text><text font-family="Adobe Heiti Std R,Adobe Heiti Std R_MSFontService,sans-serif" font-weight="400" font-size="83" transform="matrix(1 0 0 1 923.083 1415)">Soil </text><text font-family="Adobe Heiti Std R,Adobe Heiti Std R_MSFontService,sans-serif" font-weight="400" font-size="83" transform="matrix(1 0 0 1 1078.34 1415)">Moisture</text></g></svg>